# xmcd
#
# Track frame offsets:
#	150
#	13405
#	32520
#	49221
#	65083
#	77531
#	93637
#	111712
#	131983
#	150705
#
# Disc length: 2521 seconds
#
# Revision: 1
# Processed by: cddbd v1.5.2PL0 Copyright (c) Steve Scherf et al.
# Submitted via: audiograbber 1.83.01
#
DISCID=8f09d70a
DTITLE=Huojuva Lato - Rakkaus ja Juuret
DYEAR=2012
DGENRE=Country
TTITLE0=Rakkaus ja juuret
TTITLE1=Rakkaus on sotaa
TTITLE2=Syntymässä säikähtäneet
TTITLE3=Lieksan tyttö
TTITLE4=Hänelle, joka lähtee uutta alkua kohti
TTITLE5=Lasiset siivet
TTITLE6=Kalliit kilometrit
TTITLE7=Vanhaa metsää
TTITLE8=Valtimon Seiska (Perusarvot kunniaan)
TTITLE9=Karjalan taivaan alla
EXTD=
EXTT0=
EXTT1=
EXTT2=
EXTT3=
EXTT4=
EXTT5=
EXTT6=
EXTT7=
EXTT8=
EXTT9=
PLAYORDER=
